<svg width="382.24501953124997px" height="309.2px" xmlns="http://www.w3.org/2000/svg" viewBox="58.87749023437502 -79.6 382.24501953124997 309.2" style="background: rgba(0, 0, 0, 0);" preserveAspectRatio="xMidYMid"><defs><filter id="editing-hole" x="-100%" y="-100%" width="300%" height="300%"><feFlood flood-color="#000000" result="black"></feFlood><feMorphology operator="dilate" radius="2" in="SourceGraphic" result="erode"></feMorphology><feGaussianBlur in="erode" stdDeviation="4" result="blur"></feGaussianBlur><feOffset in="blur" dx="2" dy="2" result="offset"></feOffset><feComposite operator="atop" in="offset" in2="black" result="merge"></feComposite><feComposite operator="in" in="merge" in2="SourceGraphic" result="inner-shadow"></feComposite></filter></defs><g filter="url(#editing-hole)"><g transform="translate(122.9489369392395, 145.55001258850098)"><path d="M134.47-72.76L134.47-72.76L134.47-72.76Q128.18-70.21 123.68-70.21L123.68-70.21L123.68-70.21Q119.17-70.21 119.17-72.08L119.17-72.08L119.17-72.08Q119.17-73.27 124.19-73.44L124.19-73.44L124.19-73.44Q129.20-73.61 131.41-74.63L131.41-74.63L131.41-74.63Q137.87-78.03 137.87-84.66L137.87-84.66L137.87-84.66Q137.87-88.06 136-91.80L136-91.80L136-91.80Q130.56-101.49 109.65-101.49L109.65-101.49L109.65-101.49Q97.58-101.49 85.51-97.84L85.51-97.84L85.51-97.84Q73.44-94.18 65.28-86.62L65.28-86.62L65.28-86.62Q57.12-79.05 57.12-72.59L57.12-72.59L57.12-72.59Q57.12-62.73 76.67-58.14L76.67-58.14L96.73-54.40L96.73-54.40Q108.80-52.19 114.75-48.28L114.75-48.28L114.75-48.28Q122.57-43.52 122.57-34.68L122.57-34.68L122.57-34.68Q122.57-31.11 121.38-27.03L121.38-27.03L121.38-27.03Q115.94-8.67 93.33 1.02L93.33 1.02L93.33 1.02Q74.46 9.35 48.79 9.35L48.79 9.35L48.79 9.35Q41.48 9.35 36.04 8.67L36.04 8.67L36.04 8.67Q41.48 11.73 50.32 13.94L50.32 13.94L50.32 13.94Q51.00 14.11 51.00 14.62L51.00 14.62L51.00 14.62Q51.00 16.15 47.43 16.15L47.43 16.15L47.43 16.15Q40.46 16.15 30.09 7.82L30.09 7.82L30.09 7.82Q15.98 5.61 9.01 0L9.01 0L9.01 0Q4.59-3.57 0.85-10.54L0.85-10.54L0.85-10.54Q-2.89-17.51-2.89-23.12L-2.89-23.12L-2.89-23.12Q-2.89-28.73-0.68-32.47L-0.68-32.47L-0.68-32.47Q4.42-41.48 12.24-41.48L12.24-41.48L12.24-41.48Q18.19-41.48 19.21-31.45L19.21-31.45L19.21-31.45Q21.59-12.07 22.44-9.35L22.44-9.35L22.44-9.35Q24.99-1.02 31.11 4.76L31.11 4.76L31.11 4.76Q38.25 6.29 46.58 6.29L46.58 6.29L46.58 6.29Q64.94 6.29 82.62-1.02L82.62-1.02L82.62-1.02Q100.30-8.33 108.12-21.76L108.12-21.76L108.12-21.76Q111.35-27.03 111.35-31.11L111.35-31.11L111.35-31.11Q111.35-39.10 97.24-43.52L97.24-43.52L67.32-50.32L67.32-50.32Q58.14-52.53 52.62-57.63L52.62-57.63L52.62-57.63Q47.09-62.73 47.09-69.36L47.09-69.36L47.09-69.36Q47.09-79.56 59.84-89.76L59.84-89.76L59.84-89.76Q69.53-97.58 83.56-101.92L83.56-101.92L83.56-101.92Q97.58-106.25 111.10-106.25L111.10-106.25L111.10-106.25Q124.61-106.25 133.45-102.34L133.45-102.34L133.45-102.34Q144.84-97.07 144.84-86.96L144.84-86.96L144.84-86.96Q144.84-76.84 134.47-72.76ZM24.99 3.06L24.99 3.06L24.99 3.06Q15.13-7.82 12.41-26.69L12.41-26.69L12.41-26.69Q10.88-37.40 9.52-37.40L9.52-37.40L9.52-37.40Q8.16-37.40 6.97-36.64L6.97-36.64L6.97-36.64Q5.78-35.87 4.59-33.32L4.59-33.32L4.59-33.32Q3.40-30.77 3.40-26.69L3.40-26.69L3.40-26.69Q3.40-13.60 12.58-4.25L12.58-4.25L12.58-4.25Q17.17 0.51 24.99 3.06ZM171.53-36.04L171.53-36.04L171.53-36.04Q171.53-30.09 160.14-16.15L160.14-16.15L160.14-16.15Q146.71 0.34 137.19 0.34L137.19 0.34L134.47 0.34L134.47 0.34Q130.05 0.34 127.50-4.25L127.50-4.25L127.50-4.25Q125.46-7.48 125.46-11.39L125.46-11.39L125.46-11.39Q125.46-21.59 140.34-40.04L140.34-40.04L140.34-40.04Q155.21-58.48 164.39-58.48L164.39-58.48L164.39-58.48Q173.06-58.48 173.06-49.30L173.06-49.30L173.06-49.30Q173.06-46.92 172.21-43.18L172.21-43.18L172.21-43.18Q172.38-42.67 175.44-42.67L175.44-42.67L175.44-42.67Q178.50-42.67 184.79-45.90L184.79-45.90L184.79-45.90Q184.62-43.01 171.36-37.57L171.36-37.57L171.36-37.57Q171.53-36.89 171.53-36.04ZM160.48-44.88L160.48-44.88L160.48-44.88Q154.70-44.88 144.08-31.28L144.08-31.28L144.08-31.28Q133.45-17.68 133.45-11.22L133.45-11.22L133.45-11.22Q133.45-4.76 137.53-4.76L137.53-4.76L137.53-4.76Q144.84-4.76 156.06-18.02L156.06-18.02L156.06-18.02Q167.28-31.28 167.28-37.06L167.28-37.06L167.28-37.06Q164.56-38.59 160.48-44.88ZM244.29-83.13L244.29-83.13L244.29-83.13Q244.29-77.86 241.23-77.86L241.23-77.86L241.23-77.86Q240.38-77.86 239.53-79.22L239.53-79.22L239.53-79.22Q238-81.94 234.43-81.94L234.43-81.94L234.43-81.94Q226.61-81.94 219.81-70.72L219.81-70.72L219.81-70.72Q218.45-68.51 211.31-54.74L211.31-54.74L213.35-54.74L213.35-54.74Q231.88-54.74 238-55.25L238-55.25L238-55.25Q238.68-55.08 238.68-54.57L238.68-54.57L238.68-54.57Q238.68-53.21 226.61-50.83L226.61-50.83L226.61-50.83Q215.22-48.96 207.91-47.60L207.91-47.60L207.91-47.60Q202.64-36.72 195.16-21.76L195.16-21.76L195.16-21.76Q179.86 6.80 174.93 13.77L174.93 13.77L174.93 13.77Q160.14 34.85 146.03 34.85L146.03 34.85L146.03 34.85Q141.10 34.85 137.44 30.69L137.44 30.69L137.44 30.69Q133.79 26.52 133.62 21.42L133.62 21.42L133.62 21.42Q134.13 19.38 135.15 19.38L135.15 19.38L135.15 19.38Q135.66 19.38 135.83 20.57L135.83 20.57L135.83 20.57Q136.85 24.99 139.23 27.37L139.23 27.37L139.23 27.37Q141.61 29.75 144.16 29.75L144.16 29.75L144.16 29.75Q158.61 29.75 170.51 11.90L170.51 11.90L170.51 11.90Q177.31 1.70 189.04-24.82L189.04-24.82L198.22-46.92L198.22-46.92Q181.22-47.09 181.22-51.00L181.22-51.00L181.22-51.00Q181.22-52.70 182.84-53.89L182.84-53.89L182.84-53.89Q184.45-55.08 185.64-55.08L185.64-55.08L201.62-54.74L201.62-54.74Q218.28-91.80 232.22-91.80L232.22-91.80L232.22-91.80Q237.49-91.80 242.93-86.70L242.93-86.70L242.93-86.70Q244.29-85.34 244.29-83.13ZM252.96-69.36L252.96-69.36Q255.51-69.36 257.81-67.75L257.81-67.75L257.81-67.75Q260.10-66.13 260.10-63.92L260.10-63.92L260.10-63.92Q260.10-61.71 257.98-60.10L257.98-60.10L257.98-60.10Q255.85-58.48 253.30-58.48L253.30-58.48L253.30-58.48Q250.75-58.48 248.63-60.35L248.63-60.35L248.63-60.35Q246.50-62.22 246.50-64.60L246.50-64.60L246.50-64.60Q246.50-69.36 252.96-69.36L252.96-69.36ZM222.19 1.87L222.19 1.87L222.19 1.87Q213.52 1.87 213.52-9.35L213.52-9.35L213.52-9.35Q213.52-18.53 223.55-34.77L223.55-34.77L223.55-34.77Q233.58-51.00 239.70-51.17L239.70-51.17L239.70-51.17Q241.40-51.17 243.53-49.81L243.53-49.81L243.53-49.81Q245.65-48.45 245.65-47.09L245.65-47.09L245.65-47.09Q244.80-45.90 243.61-44.46L243.61-44.46L243.61-44.46Q242.42-43.01 241.06-41.31L241.06-41.31L241.06-41.31Q239.70-39.61 237.32-36.47L237.32-36.47L237.32-36.47Q234.94-33.32 232.73-30.43L232.73-30.43L232.73-30.43Q219.98-13.94 219.98-7.74L219.98-7.74L219.98-7.74Q219.98-1.53 224.23-1.53L224.23-1.53L224.23-1.53Q227.80-1.53 233.92-5.44L233.92-5.44L233.92-5.44Q248.20-14.28 256.53-24.82L256.53-24.82L256.53-24.82Q259.59-28.73 260.69-28.73L260.69-28.73L260.69-28.73Q261.80-28.73 261.80-27.37L261.80-27.37L261.80-27.37Q261.80-26.01 257.89-21.93L257.89-21.93L257.89-21.93Q253.98-17.85 251.69-15.47L251.69-15.47L251.69-15.47Q249.39-13.09 248.54-12.33L248.54-12.33L248.54-12.33Q247.69-11.56 245.39-9.44L245.39-9.44L245.39-9.44Q243.10-7.31 241.91-6.46L241.91-6.46L241.91-6.46Q240.72-5.61 238.51-3.91L238.51-3.91L238.51-3.91Q236.30-2.21 234.60-1.45L234.60-1.45L234.60-1.45Q232.90-0.68 230.69 0.34L230.69 0.34L230.69 0.34Q227.12 1.87 222.19 1.87Z" fill="#000000"></path></g></g><style>text {
  font-size: 64px;
  font-family: Arial Black;
  dominant-baseline: central;
  text-anchor: middle;
}</style></svg>