<svg width="18" height="12" viewBox="0 0 18 12" fill="none" xmlns="http://www.w3.org/2000/svg">
<path d="M2.77201 9.576C2.43601 9.464 2.18801 9.292 2.02801 9.06C1.87601 8.836 1.78801 8.552 1.76401 8.208C1.34001 8.088 0.996008 7.908 0.732008 7.668C0.476008 7.428 0.288008 7.152 0.168008 6.84C0.0560083 6.52 8.29622e-06 6.188 8.29622e-06 5.844C8.29622e-06 5.46 0.0720083 5.104 0.216008 4.776C0.368008 4.44 0.568008 4.144 0.816008 3.888C1.07201 3.632 1.35601 3.432 1.66801 3.288C1.98801 3.144 2.31601 3.072 2.65201 3.072C2.89201 3.072 3.12801 3.112 3.36001 3.192C3.60001 3.272 3.82801 3.4 4.04401 3.576C4.32401 3.28 4.60001 3.004 4.87201 2.748C5.15201 2.484 5.40801 2.22 5.64001 1.956C5.60801 1.836 5.57201 1.712 5.53201 1.584C5.50001 1.456 5.47201 1.316 5.44801 1.164C5.44001 1.14 5.43601 1.116 5.43601 1.092C5.43601 1.06 5.43601 1.028 5.43601 0.995998C5.43601 0.843998 5.46401 0.691998 5.52001 0.539998C5.58401 0.387998 5.67201 0.259998 5.78401 0.155998C5.89601 0.0519979 6.03201 -2.14577e-06 6.19201 -2.14577e-06C6.21601 -2.14577e-06 6.24001 0.00399804 6.26401 0.0119984C6.29601 0.0119984 6.32801 0.0159984 6.36001 0.0239983C6.54401 0.0639982 6.63601 0.203998 6.63601 0.443998C6.63601 0.611998 6.58401 0.799998 6.48001 1.008C6.41601 1.144 6.34001 1.276 6.25201 1.404C6.16401 1.532 6.06801 1.66 5.96401 1.788C6.18001 2.34 6.35201 2.856 6.48001 3.336C6.60801 3.816 6.67201 4.292 6.67201 4.764C6.67201 5.308 6.56401 5.8 6.34801 6.24C6.14001 6.68 5.85201 7.056 5.48401 7.368C5.11601 7.68 4.70001 7.92 4.23601 8.088C3.77201 8.256 3.28801 8.34 2.78401 8.34C2.64801 8.34 2.50801 8.332 2.36401 8.316C2.22001 8.308 2.08001 8.288 1.94401 8.256C1.98401 8.624 2.09201 8.896 2.26801 9.072C2.45201 9.248 2.63201 9.36 2.80801 9.408C2.88801 9.432 2.92801 9.468 2.92801 9.516C2.92801 9.58 2.87601 9.6 2.77201 9.576ZM5.91601 1.632C6.00401 1.52 6.08401 1.408 6.15601 1.296C6.23601 1.176 6.30401 1.052 6.36001 0.923998C6.46401 0.723998 6.51601 0.559998 6.51601 0.431998C6.51601 0.327998 6.48401 0.263998 6.42001 0.239998C6.39601 0.223998 6.35201 0.215998 6.28801 0.215998C6.20801 0.215998 6.12401 0.251998 6.03601 0.323998C5.94801 0.395998 5.87201 0.531998 5.80801 0.731998C5.78401 0.811998 5.77201 0.891998 5.77201 0.971998C5.77201 1.076 5.78401 1.184 5.80801 1.296C5.84001 1.4 5.87601 1.512 5.91601 1.632ZM2.71201 8.148C3.17601 8.148 3.62401 8.04 4.05601 7.824C4.49601 7.608 4.87601 7.328 5.19601 6.984C5.52401 6.632 5.75601 6.248 5.89201 5.832C5.96401 5.608 6.01601 5.38 6.04801 5.148C6.08001 4.916 6.09601 4.676 6.09601 4.428C6.09601 4.052 6.06001 3.668 5.98801 3.276C5.91601 2.876 5.81601 2.488 5.68801 2.112C5.46401 2.36 5.22001 2.612 4.95601 2.868C4.69201 3.116 4.42401 3.384 4.15201 3.672C4.29601 3.808 4.40401 3.976 4.47601 4.176C4.54801 4.376 4.58401 4.58 4.58401 4.788C4.58401 5.124 4.50401 5.42 4.34401 5.676C4.19201 5.924 3.97601 6.124 3.69601 6.276C3.41601 6.42 3.12801 6.492 2.83201 6.492C2.74401 6.492 2.65601 6.484 2.56801 6.468C2.48801 6.452 2.40801 6.432 2.32801 6.408C2.22401 6.656 2.13201 6.924 2.05201 7.212C1.97201 7.492 1.93201 7.764 1.93201 8.028C2.17201 8.108 2.43201 8.148 2.71201 8.148ZM1.76401 7.98C1.77201 7.692 1.81601 7.416 1.89601 7.152C1.98401 6.88 2.08001 6.612 2.18401 6.348C2.02401 6.26 1.90401 6.148 1.82401 6.012C1.74401 5.876 1.70401 5.74 1.70401 5.604C1.70401 5.364 1.80001 5.184 1.99201 5.064C2.03201 5.04 2.06001 5.028 2.07601 5.028C2.10001 5.028 2.11201 5.04 2.11201 5.064C2.11201 5.088 2.09201 5.12 2.05201 5.16C1.91601 5.28 1.84801 5.424 1.84801 5.592C1.84801 5.848 1.97601 6.048 2.23201 6.192C2.44801 5.688 2.70001 5.236 2.98801 4.836C3.28401 4.428 3.58801 4.06 3.90001 3.732C3.70001 3.572 3.49601 3.456 3.28801 3.384C3.08801 3.312 2.88401 3.276 2.67601 3.276C2.27601 3.276 1.89601 3.396 1.53601 3.636C1.18401 3.876 0.900008 4.192 0.684008 4.584C0.468008 4.976 0.360008 5.404 0.360008 5.868C0.360008 6.156 0.400008 6.44 0.480008 6.72C0.560008 6.992 0.700008 7.24 0.900008 7.464C1.10801 7.68 1.39601 7.852 1.76401 7.98ZM2.76001 6.336C3.00801 6.336 3.26401 6.268 3.52801 6.132C3.80001 5.988 4.00801 5.796 4.15201 5.556C4.28801 5.332 4.35601 5.08 4.35601 4.8C4.35601 4.624 4.32401 4.452 4.26001 4.284C4.20401 4.108 4.11601 3.956 3.99601 3.828C3.70001 4.156 3.40801 4.52 3.12001 4.92C2.84001 5.312 2.59201 5.76 2.37601 6.264C2.48801 6.312 2.61601 6.336 2.76001 6.336ZM8.21541 7.992C7.84741 7.992 7.57941 7.856 7.41141 7.584C7.24341 7.304 7.15941 6.976 7.15941 6.6C7.15941 6.248 7.22341 5.892 7.35141 5.532C7.47941 5.172 7.65941 4.872 7.89141 4.632C8.12341 4.392 8.38741 4.272 8.68341 4.272C8.73941 4.272 8.77541 4.28 8.79141 4.296C8.87941 4.2 8.97541 4.124 9.07941 4.068C9.19141 4.004 9.31141 3.972 9.43941 3.972C9.71941 3.972 9.91541 4.072 10.0274 4.272C10.1394 4.464 10.1954 4.704 10.1954 4.992C10.1954 5.272 10.1514 5.572 10.0634 5.892C9.97541 6.212 9.86341 6.508 9.72741 6.78C9.59141 7.052 9.44741 7.264 9.29541 7.416C9.33541 7.424 9.37541 7.432 9.41541 7.44C9.45541 7.44 9.49541 7.44 9.53541 7.44C9.82341 7.44 10.0874 7.364 10.3274 7.212C10.5674 7.052 10.7874 6.86 10.9874 6.636C11.1874 6.412 11.3714 6.192 11.5394 5.976C11.5634 5.952 11.5834 5.94 11.5994 5.94C11.6314 5.94 11.6514 5.956 11.6594 5.988C11.6674 6.02 11.6594 6.056 11.6354 6.096C11.5634 6.184 11.4594 6.312 11.3234 6.48C11.1874 6.648 11.0234 6.82 10.8314 6.996C10.6394 7.172 10.4314 7.32 10.2074 7.44C9.98341 7.56 9.75141 7.62 9.51141 7.62C9.44741 7.62 9.38741 7.616 9.33141 7.608C9.27541 7.592 9.21541 7.576 9.15141 7.56C9.02341 7.688 8.87941 7.792 8.71941 7.872C8.56741 7.952 8.39941 7.992 8.21541 7.992ZM9.09141 7.344C9.26741 7.152 9.41141 6.924 9.52341 6.66C9.63541 6.396 9.71941 6.124 9.77541 5.844C9.83941 5.564 9.87141 5.304 9.87141 5.064C9.87141 4.784 9.83141 4.556 9.75141 4.38C9.67941 4.204 9.56741 4.136 9.41541 4.176C9.21541 4.224 9.04341 4.34 8.89941 4.524C8.75541 4.708 8.64341 4.928 8.56341 5.184C8.49141 5.44 8.45541 5.7 8.45541 5.964C8.45541 6.26 8.50341 6.536 8.59941 6.792C8.70341 7.048 8.86741 7.232 9.09141 7.344ZM8.27541 7.788C8.41141 7.788 8.53541 7.756 8.64741 7.692C8.75941 7.628 8.86341 7.556 8.95941 7.476C8.72741 7.34 8.55541 7.124 8.44341 6.828C8.33941 6.532 8.28741 6.22 8.28741 5.892C8.28741 5.644 8.31541 5.4 8.37141 5.16C8.43541 4.92 8.51941 4.708 8.62341 4.524H8.58741C8.45941 4.524 8.33141 4.592 8.20341 4.728C8.08341 4.864 7.97541 5.044 7.87941 5.268C7.78341 5.484 7.70341 5.72 7.63941 5.976C7.58341 6.224 7.55541 6.468 7.55541 6.708C7.55541 7.004 7.61141 7.26 7.72341 7.476C7.83541 7.684 8.01941 7.788 8.27541 7.788ZM10.5708 11.052C10.3068 10.988 10.1748 10.732 10.1748 10.284C10.1748 9.86 10.2948 9.28 10.5348 8.544C10.7668 7.816 11.0948 6.984 11.5188 6.048C11.6388 5.784 11.7908 5.452 11.9748 5.052C12.1668 4.644 12.3708 4.22 12.5868 3.78C12.8108 3.332 13.0308 2.916 13.2468 2.532C13.4628 2.14 13.6588 1.832 13.8348 1.608C13.9708 1.424 14.1148 1.288 14.2668 1.2C14.4188 1.112 14.5588 1.068 14.6868 1.068C14.7988 1.068 14.8908 1.104 14.9628 1.176C15.0428 1.248 15.0828 1.364 15.0828 1.524C15.0828 1.612 15.0668 1.72 15.0348 1.848C15.0028 1.968 14.9468 2.108 14.8668 2.268C14.6828 2.644 14.3748 3.12 13.9428 3.696C13.5108 4.272 12.9268 4.884 12.1908 5.532C12.1028 5.692 12.0068 5.88 11.9028 6.096C11.8068 6.312 11.7028 6.544 11.5908 6.792C11.5268 6.944 11.4628 7.096 11.3988 7.248C11.4628 7.272 11.5188 7.32 11.5668 7.392C11.6228 7.464 11.6548 7.5 11.6628 7.5C11.7028 7.508 11.7428 7.516 11.7828 7.524C11.8308 7.524 11.8748 7.524 11.9148 7.524C12.2268 7.524 12.5348 7.448 12.8388 7.296C13.1508 7.136 13.4428 6.924 13.7148 6.66C13.9868 6.396 14.2308 6.104 14.4468 5.784C14.4708 5.744 14.4988 5.724 14.5308 5.724C14.5628 5.724 14.5828 5.744 14.5908 5.784C14.6068 5.816 14.6068 5.848 14.5908 5.88C14.2468 6.368 13.9228 6.74 13.6188 6.996C13.3148 7.244 13.0388 7.416 12.7908 7.512C12.5428 7.6 12.3308 7.648 12.1548 7.656C11.9868 7.664 11.8628 7.668 11.7828 7.668C11.8468 7.748 11.9108 7.884 11.9748 8.076C12.0468 8.268 12.0828 8.504 12.0828 8.784C12.0828 8.976 12.0588 9.18 12.0108 9.396C11.9068 9.828 11.7588 10.168 11.5668 10.416C11.3748 10.672 11.1868 10.848 11.0028 10.944C10.8188 11.04 10.6748 11.076 10.5708 11.052ZM12.3228 5.196C12.8668 4.7 13.3468 4.18 13.7628 3.636C14.1788 3.092 14.4908 2.62 14.6988 2.22C14.8508 1.924 14.9268 1.696 14.9268 1.536C14.9268 1.4 14.8788 1.332 14.7828 1.332C14.7188 1.332 14.6308 1.38 14.5188 1.476C14.4068 1.564 14.2788 1.708 14.1348 1.908C13.7748 2.412 13.4508 2.944 13.1628 3.504C12.8748 4.056 12.5948 4.62 12.3228 5.196ZM10.4388 10.488C10.4388 10.768 10.5228 10.908 10.6908 10.908C10.7788 10.908 10.8828 10.868 11.0028 10.788C11.1148 10.708 11.2348 10.56 11.3628 10.344C11.4908 10.128 11.6148 9.816 11.7348 9.408C11.8148 9.136 11.8548 8.876 11.8548 8.628C11.8548 8.364 11.8228 8.148 11.7588 7.98C11.7028 7.812 11.6548 7.712 11.6148 7.68C11.6068 7.68 11.5748 7.68 11.5188 7.68C11.4628 7.672 11.4028 7.652 11.3388 7.62C11.3068 7.612 11.2828 7.6 11.2668 7.584C11.1228 7.952 10.9868 8.32 10.8588 8.688C10.7308 9.056 10.6308 9.396 10.5588 9.708C10.4788 10.028 10.4388 10.288 10.4388 10.488ZM15.8508 3.948C15.6908 3.892 15.6108 3.784 15.6108 3.624C15.6108 3.536 15.6428 3.46 15.7068 3.396C15.7788 3.332 15.8548 3.3 15.9348 3.3C16.0308 3.3 16.1068 3.332 16.1628 3.396C16.2268 3.46 16.2588 3.536 16.2588 3.624C16.2588 3.72 16.2148 3.804 16.1268 3.876C16.0388 3.94 15.9468 3.964 15.8508 3.948ZM15.2268 8.04C15.0028 8.04 14.8308 7.96 14.7108 7.8C14.5988 7.64 14.5428 7.428 14.5428 7.164C14.5428 7.036 14.5548 6.9 14.5788 6.756C14.6108 6.612 14.6508 6.464 14.6988 6.312C14.7708 6.088 14.8548 5.848 14.9508 5.592C15.0468 5.336 15.1228 5.156 15.1788 5.052C15.1628 5.06 15.1188 5.112 15.0468 5.208C14.9828 5.304 14.8988 5.424 14.7948 5.568C14.6988 5.704 14.5988 5.844 14.4948 5.988C14.3908 6.132 14.2988 6.252 14.2188 6.348C14.1948 6.372 14.1668 6.384 14.1348 6.384C14.1028 6.384 14.0868 6.372 14.0868 6.348C14.0868 6.324 14.1028 6.284 14.1348 6.228C14.3588 5.892 14.5628 5.592 14.7468 5.328C14.9308 5.056 15.0988 4.796 15.2508 4.548C15.3308 4.412 15.4268 4.348 15.5388 4.356C15.6508 4.356 15.7708 4.356 15.8988 4.356C15.8668 4.42 15.8028 4.564 15.7068 4.788C15.6188 5.012 15.5188 5.26 15.4068 5.532C15.3028 5.796 15.2108 6.028 15.1308 6.228C15.0508 6.428 14.9828 6.628 14.9268 6.828C14.8788 7.028 14.8548 7.208 14.8548 7.368C14.8548 7.704 14.9788 7.872 15.2268 7.872C15.4428 7.872 15.6788 7.78 15.9348 7.596C16.1908 7.404 16.4468 7.16 16.7028 6.864C16.9668 6.568 17.2148 6.26 17.4468 5.94C17.4868 5.876 17.5268 5.844 17.5668 5.844C17.5908 5.844 17.6028 5.864 17.6028 5.904C17.6028 5.936 17.5948 5.968 17.5788 6V5.988C17.3148 6.364 17.0468 6.708 16.7748 7.02C16.5108 7.332 16.2508 7.58 15.9948 7.764C15.7388 7.948 15.4828 8.04 15.2268 8.04Z" fill="white"/>
</svg>
